<svg xmlns="http://www.w3.org/2000/svg" viewBox="0 0 800 800"><defs><linearGradient id="a" x1="0" y1="0" x2="1" y2="1"><stop stop-color="#11172a"/><stop offset="1" stop-color="#20284a"/></linearGradient><linearGradient id="b" x1="0" y1="0" x2="1" y2="1"><stop stop-color="#5b4fd8"/><stop offset="1" stop-color="#786cff"/></linearGradient></defs><rect width="800" height="800" fill="url(#a)"/><g opacity=".98"><path fill="url(#b)" d="M0 0h100v100H0zM200 0h100v100H200zM400 0h100v100H400zM600 0h100v100H600zM100 100h100v100H100zM300 100h100v100H300zM500 100h100v100H500zM700 100h100v100H700zM0 200h100v100H0zM200 200h100v100H200zM400 200h100v100H400zM600 200h100v100H600zM100 300h100v100H100zM300 300h100v100H300zM500 300h100v100H500zM700 300h100v100H700zM0 400h100v100H0zM200 400h100v100H200zM400 400h100v100H400zM600 400h100v100H600zM100 500h100v100H100zM300 500h100v100H300zM500 500h100v100H500zM700 500h100v100H700zM0 600h100v100H0zM200 600h100v100H200zM400 600h100v100H400zM600 600h100v100H600zM100 700h100v100H100zM300 700h100v100H300zM500 700h100v100H500zM700 700h100v100H700z"/></g><path d="M0 0h800v800H0z" fill="none" stroke="#6d5ef7" stroke-opacity=".22" stroke-width="8"/></svg>